<?xml version="1.0" encoding="utf-8"?>
<!-- Generator: Adobe Illustrator 21.1.0, SVG Export Plug-In . SVG Version: 6.00 Build 0)  -->
<svg version="1.0" id="레이어_1" xmlns="http://www.w3.org/2000/svg" xmlns:xlink="http://www.w3.org/1999/xlink" x="0px"
	 y="0px" viewBox="0 0 18 18" enable-background="new 0 0 18 18" xml:space="preserve">
<g>
	<path fill="#888888" d="M9,4.319c-2.541,0-4.645,2.069-4.645,4.645S6.423,13.609,9,13.609s4.645-2.105,4.645-4.645
		S11.541,4.319,9,4.319z M9,11.939c-1.633,0-2.976-1.342-2.976-2.976S7.367,5.988,9,5.988s2.976,1.342,2.976,2.976
		S10.633,11.939,9,11.939z"/>
	<circle fill="#888888" cx="13.827" cy="4.209" r="1.053"/>
	<path fill="#888888" d="M16.548,1.488C15.605,0.508,14.262,0,12.738,0H5.262C2.105,0,0,2.105,0,5.262v7.439
		c0,1.561,0.508,2.903,1.524,3.883C2.505,17.528,3.811,18,5.298,18h7.403c1.561,0,2.867-0.508,3.811-1.416
		C17.492,15.641,18,14.298,18,12.738V5.262C18,3.738,17.492,2.431,16.548,1.488z M16.403,12.738c0,1.125-0.399,2.033-1.053,2.649
		c-0.653,0.617-1.561,0.944-2.649,0.944H5.298c-1.089,0-1.995-0.327-2.649-0.944c-0.653-0.653-0.98-1.561-0.98-2.686V5.262
		c0-1.089,0.327-1.995,0.98-2.649C3.267,1.997,4.211,1.67,5.298,1.67h7.476c1.089,0,1.995,0.327,2.649,0.98
		c0.617,0.653,0.98,1.561,0.98,2.613V12.738L16.403,12.738z"/>
</g>
</svg>
